<mxfile host="app.diagrams.net" agent="Mozilla/5.0 (Windows NT 10.0; Win64; x64) AppleWebKit/537.36 (KHTML, like Gecko) Chrome/138.0.0.0 Safari/537.36 Edg/138.0.0.0" version="28.0.7">
  <diagram id="R2lEEEUBdFMjLlhIrx00" name="Page-1">
    <mxGraphModel dx="1197" dy="662" grid="1" gridSize="10" guides="1" tooltips="1" connect="1" arrows="1" fold="1" page="1" pageScale="1" pageWidth="850" pageHeight="1100" math="0" shadow="0" extFonts="Permanent Marker^https://fonts.googleapis.com/css?family=Permanent+Marker">
      <root>
        <mxCell id="0" />
        <mxCell id="1" parent="0" />
        <mxCell id="-_nmz9Q-kG3tC2L_Btlv-3" style="edgeStyle=orthogonalEdgeStyle;rounded=0;orthogonalLoop=1;jettySize=auto;html=1;exitX=0.5;exitY=1;exitDx=0;exitDy=0;entryX=0.5;entryY=0;entryDx=0;entryDy=0;" edge="1" parent="1" source="B3aKzbI6hBscxFm3-y0n-1" target="-_nmz9Q-kG3tC2L_Btlv-2">
          <mxGeometry relative="1" as="geometry" />
        </mxCell>
        <mxCell id="-_nmz9Q-kG3tC2L_Btlv-4" style="edgeStyle=orthogonalEdgeStyle;rounded=0;orthogonalLoop=1;jettySize=auto;html=1;exitX=0.5;exitY=1;exitDx=0;exitDy=0;entryX=0.5;entryY=0;entryDx=0;entryDy=0;" edge="1" parent="1" source="B3aKzbI6hBscxFm3-y0n-1" target="-_nmz9Q-kG3tC2L_Btlv-1">
          <mxGeometry relative="1" as="geometry" />
        </mxCell>
        <mxCell id="-_nmz9Q-kG3tC2L_Btlv-6" value="SignUp / Login" style="edgeLabel;html=1;align=center;verticalAlign=middle;resizable=0;points=[];fontFamily=Times New Roman;fontSize=17;" vertex="1" connectable="0" parent="-_nmz9Q-kG3tC2L_Btlv-4">
          <mxGeometry x="-0.8172" y="-3" relative="1" as="geometry">
            <mxPoint as="offset" />
          </mxGeometry>
        </mxCell>
        <mxCell id="B3aKzbI6hBscxFm3-y0n-1" value="Citizen" style="rounded=0;whiteSpace=wrap;html=1;fillColor=none;" parent="1" vertex="1">
          <mxGeometry x="320" y="11" width="120" height="60" as="geometry" />
        </mxCell>
        <mxCell id="-_nmz9Q-kG3tC2L_Btlv-11" style="edgeStyle=orthogonalEdgeStyle;rounded=0;orthogonalLoop=1;jettySize=auto;html=1;exitX=0.5;exitY=1;exitDx=0;exitDy=0;entryX=0.5;entryY=0;entryDx=0;entryDy=0;" edge="1" parent="1" source="-_nmz9Q-kG3tC2L_Btlv-1" target="-_nmz9Q-kG3tC2L_Btlv-10">
          <mxGeometry relative="1" as="geometry" />
        </mxCell>
        <mxCell id="-_nmz9Q-kG3tC2L_Btlv-1" value="Admin" style="rounded=0;whiteSpace=wrap;html=1;fillColor=none;" vertex="1" parent="1">
          <mxGeometry x="470" y="169" width="120" height="60" as="geometry" />
        </mxCell>
        <mxCell id="-_nmz9Q-kG3tC2L_Btlv-8" style="edgeStyle=orthogonalEdgeStyle;rounded=0;orthogonalLoop=1;jettySize=auto;html=1;exitX=0.5;exitY=1;exitDx=0;exitDy=0;entryX=0.5;entryY=0;entryDx=0;entryDy=0;" edge="1" parent="1" source="-_nmz9Q-kG3tC2L_Btlv-2" target="-_nmz9Q-kG3tC2L_Btlv-7">
          <mxGeometry relative="1" as="geometry" />
        </mxCell>
        <mxCell id="-_nmz9Q-kG3tC2L_Btlv-2" value="User" style="rounded=0;whiteSpace=wrap;html=1;fillColor=none;" vertex="1" parent="1">
          <mxGeometry x="170" y="172" width="120" height="60" as="geometry" />
        </mxCell>
        <mxCell id="-_nmz9Q-kG3tC2L_Btlv-12" style="edgeStyle=orthogonalEdgeStyle;rounded=0;orthogonalLoop=1;jettySize=auto;html=1;exitX=0.5;exitY=1;exitDx=0;exitDy=0;entryX=0.5;entryY=0;entryDx=0;entryDy=0;" edge="1" parent="1" source="-_nmz9Q-kG3tC2L_Btlv-7" target="-_nmz9Q-kG3tC2L_Btlv-19">
          <mxGeometry relative="1" as="geometry">
            <mxPoint x="229.5" y="420.0000000000001" as="targetPoint" />
          </mxGeometry>
        </mxCell>
        <mxCell id="-_nmz9Q-kG3tC2L_Btlv-7" value="Submit Reports" style="rounded=0;whiteSpace=wrap;html=1;fillColor=none;" vertex="1" parent="1">
          <mxGeometry x="170" y="295" width="120" height="60" as="geometry" />
        </mxCell>
        <mxCell id="-_nmz9Q-kG3tC2L_Btlv-15" style="edgeStyle=orthogonalEdgeStyle;rounded=0;orthogonalLoop=1;jettySize=auto;html=1;exitX=0.5;exitY=1;exitDx=0;exitDy=0;entryX=0.5;entryY=0;entryDx=0;entryDy=0;" edge="1" parent="1" source="-_nmz9Q-kG3tC2L_Btlv-10" target="-_nmz9Q-kG3tC2L_Btlv-14">
          <mxGeometry relative="1" as="geometry" />
        </mxCell>
        <mxCell id="-_nmz9Q-kG3tC2L_Btlv-10" value="View Reports/Edit Reports" style="rounded=0;whiteSpace=wrap;html=1;fillColor=none;" vertex="1" parent="1">
          <mxGeometry x="470" y="297" width="120" height="60" as="geometry" />
        </mxCell>
        <mxCell id="-_nmz9Q-kG3tC2L_Btlv-23" style="edgeStyle=orthogonalEdgeStyle;rounded=0;orthogonalLoop=1;jettySize=auto;html=1;exitX=0.5;exitY=1;exitDx=0;exitDy=0;entryX=0.5;entryY=0;entryDx=0;entryDy=0;" edge="1" parent="1" source="-_nmz9Q-kG3tC2L_Btlv-13" target="-_nmz9Q-kG3tC2L_Btlv-20">
          <mxGeometry relative="1" as="geometry" />
        </mxCell>
        <mxCell id="-_nmz9Q-kG3tC2L_Btlv-13" value="View Dashboard" style="rounded=0;whiteSpace=wrap;html=1;fillColor=none;" vertex="1" parent="1">
          <mxGeometry x="310" y="530" width="120" height="60" as="geometry" />
        </mxCell>
        <mxCell id="-_nmz9Q-kG3tC2L_Btlv-21" style="edgeStyle=orthogonalEdgeStyle;rounded=0;orthogonalLoop=1;jettySize=auto;html=1;exitX=0.5;exitY=1;exitDx=0;exitDy=0;entryX=1;entryY=0.5;entryDx=0;entryDy=0;" edge="1" parent="1" source="-_nmz9Q-kG3tC2L_Btlv-14" target="-_nmz9Q-kG3tC2L_Btlv-13">
          <mxGeometry relative="1" as="geometry" />
        </mxCell>
        <mxCell id="-_nmz9Q-kG3tC2L_Btlv-14" value="Send Alerts/ Edit Alerts" style="rounded=0;whiteSpace=wrap;html=1;fillColor=none;" vertex="1" parent="1">
          <mxGeometry x="470" y="430" width="120" height="60" as="geometry" />
        </mxCell>
        <mxCell id="-_nmz9Q-kG3tC2L_Btlv-16" value="Database" style="shape=process;whiteSpace=wrap;html=1;backgroundOutline=1;fillColor=none;" vertex="1" parent="1">
          <mxGeometry x="310" y="750" width="120" height="60" as="geometry" />
        </mxCell>
        <mxCell id="-_nmz9Q-kG3tC2L_Btlv-22" style="edgeStyle=orthogonalEdgeStyle;rounded=0;orthogonalLoop=1;jettySize=auto;html=1;exitX=0.5;exitY=1;exitDx=0;exitDy=0;entryX=0;entryY=0.5;entryDx=0;entryDy=0;" edge="1" parent="1" source="-_nmz9Q-kG3tC2L_Btlv-19" target="-_nmz9Q-kG3tC2L_Btlv-13">
          <mxGeometry relative="1" as="geometry" />
        </mxCell>
        <mxCell id="-_nmz9Q-kG3tC2L_Btlv-19" value="View Alerts" style="rounded=0;whiteSpace=wrap;html=1;fillColor=none;" vertex="1" parent="1">
          <mxGeometry x="170" y="430" width="120" height="60" as="geometry" />
        </mxCell>
        <mxCell id="-_nmz9Q-kG3tC2L_Btlv-24" style="edgeStyle=orthogonalEdgeStyle;rounded=0;orthogonalLoop=1;jettySize=auto;html=1;exitX=0.5;exitY=1;exitDx=0;exitDy=0;entryX=0.5;entryY=0;entryDx=0;entryDy=0;" edge="1" parent="1" source="-_nmz9Q-kG3tC2L_Btlv-20" target="-_nmz9Q-kG3tC2L_Btlv-16">
          <mxGeometry relative="1" as="geometry" />
        </mxCell>
        <mxCell id="-_nmz9Q-kG3tC2L_Btlv-20" value="View Map" style="rounded=0;whiteSpace=wrap;html=1;fillColor=none;" vertex="1" parent="1">
          <mxGeometry x="310" y="640" width="120" height="60" as="geometry" />
        </mxCell>
      </root>
    </mxGraphModel>
  </diagram>
</mxfile>
